<?xml version="1.0" encoding="UTF-8" standalone="no"?>
<svg width="70px" height="70px" viewBox="0 0 70 70" version="1.1" xmlns="http://www.w3.org/2000/svg" xmlns:xlink="http://www.w3.org/1999/xlink">
    <!-- Generator: Sketch 3.6.1 (26313) - http://www.bohemiancoding.com/sketch -->
    <title>Hatena</title>
    <desc>Created with Sketch.</desc>
    <defs></defs>
    <g id="Welcome" stroke="none" stroke-width="1" fill="none" fill-rule="evenodd">
        <g id="Desktop" transform="translate(-519.000000, -520.000000)" fill="#FFFFFF">
            <path d="M553.999646,590.001415 C534.700759,590.001415 519,574.301364 519,555.000708 C519,535.701821 534.700759,520 553.999646,520 C573.301364,520 589,535.701821 589,555.000708 C589,574.301364 573.301364,590.001415 553.999646,590.001415 L553.999646,590.001415 Z M553.999646,524.451657 C537.155186,524.451657 523.450241,538.154478 523.450241,555.000708 C523.450241,571.846583 537.155186,585.55082 553.999646,585.55082 C570.847291,585.55082 584.551882,571.846583 584.551882,555.000708 C584.551882,538.154478 570.847291,524.451657 553.999646,524.451657 L553.999646,524.451657 Z M554.795141,528.925961 L554.795141,553.716168 C555.661055,554.040664 556.280324,554.868715 556.280324,555.846806 C556.280324,557.106221 555.258708,558.126422 554.000354,558.126422 C552.740585,558.126422 551.720384,557.105513 551.720384,555.846806 C551.720384,554.822005 552.401579,553.965291 553.333313,553.677242 L553.333313,528.899775 C552.807819,530.857017 551.762848,534.240347 550.04482,537.717806 C547.365687,543.136937 544.025883,547.917336 544.025883,547.917336 L546.161829,577.146107 C549.16307,578.742469 549.16307,578.742469 549.16307,578.742469 C549.16307,578.742469 550.56467,579.412503 554.056619,579.414399 C559.929408,579.411215 561.960256,577.146107 561.960256,577.146107 L564.095848,547.917336 C564.094786,547.917336 560.754982,543.137291 558.076557,537.717806 C556.366668,534.255209 555.322404,530.888158 554.795141,528.925961 Z" id="Hatena"></path>
        </g>
    </g>
</svg>