<?xml version="1.0" encoding="UTF-8" standalone="no"?>
<svg width="70px" height="70px" viewBox="0 0 70 70" version="1.1" xmlns="http://www.w3.org/2000/svg" xmlns:xlink="http://www.w3.org/1999/xlink">
    <!-- Generator: Sketch 3.6.1 (26313) - http://www.bohemiancoding.com/sketch -->
    <title>hatena</title>
    <desc>Created with Sketch.</desc>
    <defs></defs>
    <g id="Welcome" stroke="none" stroke-width="1" fill="none" fill-rule="evenodd">
        <g id="Desktop" transform="translate(-465.000000, -261.000000)">
            <g id="hatena" transform="translate(464.000000, 261.000000)">
                <rect id="Rectangle-7" x="0" y="0" width="72" height="72"></rect>
                <path d="M35.9996461,70.0014155 C16.7007593,70.0014155 1,54.3013639 1,35.0007077 C1,15.7018209 16.7007593,-7.10542736e-15 35.9996461,-7.10542736e-15 C55.3013639,-7.10542736e-15 71,15.7018209 71,35.0007077 C71,54.3013639 55.3013639,70.0014155 35.9996461,70.0014155 L35.9996461,70.0014155 Z M35.9996461,4.45165661 C19.1551862,4.45165661 5.45024114,18.1544784 5.45024114,35.0007077 C5.45024114,51.8465832 19.1551862,65.5508205 35.9996461,65.5508205 C52.8472909,65.5508205 66.5518821,51.8465832 66.5518821,35.0007077 C66.5518821,18.1544784 52.8472909,4.45165661 35.9996461,4.45165661 L35.9996461,4.45165661 Z M36.7951409,8.92596075 L36.7951409,33.7161677 C37.6610553,34.0406645 38.2803239,34.8687151 38.2803239,35.8468056 C38.2803239,37.106221 37.2587077,38.1264218 36.0003539,38.1264218 C34.7405846,38.1264218 33.7203838,37.1055133 33.7203838,35.8468056 C33.7203838,34.8220045 34.4015793,33.9652906 35.3333131,33.6772423 L35.3333131,8.89977454 C34.8078195,10.8570172 33.7628479,14.240347 32.0448199,17.7178056 C29.365687,23.1369367 26.0258829,27.9173365 26.0258829,27.9173365 L28.1618288,57.1461069 C31.16307,58.7424685 31.1630699,58.7424685 31.1630699,58.7424685 C31.1630699,58.7424685 32.5646699,59.4125032 36.0566188,59.4143994 C41.9294084,59.4112146 43.9602556,57.1461069 43.9602556,57.1461069 L46.0958476,27.9173365 C46.094786,27.9173365 42.754982,23.1372906 40.0765568,17.7178056 C38.3666677,14.2552094 37.3224039,10.8881576 36.7951409,8.92596075 Z" id="Hatena" fill="#FFFFFF"></path>
            </g>
        </g>
    </g>
</svg>