<?xml version="1.0" encoding="UTF-8" standalone="no"?>
<svg width="56px" height="297px" viewBox="0 0 56 297" version="1.1" xmlns="http://www.w3.org/2000/svg" xmlns:xlink="http://www.w3.org/1999/xlink">
    <!-- Generator: Sketch 3.6.1 (26313) - http://www.bohemiancoding.com/sketch -->
    <title>hello</title>
    <desc>Created with Sketch.</desc>
    <defs></defs>
    <g id="Welcome" stroke="none" stroke-width="1" fill="none" fill-rule="evenodd">
        <g id="Desktop" transform="translate(-169.000000, -490.000000)" fill="#4C4C4C">
            <path d="M180,490.536 C181.664,493.224 183.072,494.632 185.504,495.848 C187.68,496.936 190.688,497.576 193.76,497.576 L195.68,497.576 C191.52,500.136 187.808,502.504 186.08,503.72 L186.464,504.424 C195.872,500.776 200.544,499.304 205.728,498.472 C208.736,498.024 208.736,498.024 209.632,497.704 C210.72,497.256 211.296,496.552 211.296,495.592 C211.296,493.224 207.968,490.344 205.152,490.344 C204.832,490.344 204.064,490.472 203.744,490.6 C201.12,491.56 200.8,491.688 199.2,491.944 C196.32,492.52 192.8,492.84 190.368,492.84 C185.76,492.84 183.328,492.136 180.512,490.152 L180,490.536 Z M178.272,514.344 C177.12,517.288 176.608,519.656 176.608,522.088 C176.608,526.632 178.656,530.472 182.368,532.84 C185.76,535.016 191.072,536.104 198.624,536.104 C205.472,536.104 211.232,535.464 213.984,534.376 C215.392,533.8 216.224,532.776 216.224,531.56 C216.224,529.192 212.832,526.568 209.696,526.568 C208.992,526.568 208.48,526.696 207.392,527.144 C203.296,528.68 199.84,529.256 194.4,529.256 C183.456,529.256 178.848,525.864 178.848,517.736 C178.848,516.904 178.912,516.136 179.104,514.6 L178.272,514.344 Z M223.776,576.728 C221.792,581.784 219.488,585.24 215.904,588.632 C212.512,591.768 208.736,593.624 205.664,593.624 C204.576,593.624 203.68,593.368 202.976,592.792 C202.08,592.024 201.632,590.616 201.12,587.544 C200.48,583.256 200.288,582.488 199.52,580.888 C198.048,577.816 195.232,576.088 191.776,576.088 C188.576,576.088 185.312,577.688 181.344,581.208 L181.28,581.208 C182.368,579.416 182.368,579.416 184.352,576.088 C187.04,571.672 187.04,571.672 191.52,564.504 C194.464,559.896 195.04,559 196.32,557.592 C197.6,556.248 197.856,555.736 197.856,554.776 C197.856,553.304 196.832,552.024 194.656,550.552 C191.648,548.632 188.448,547.416 186.208,547.416 C185.248,547.416 184.736,547.544 183.712,548.056 C187.04,549.4 188.512,551 188.512,553.176 C188.512,555.288 187.04,559.448 183.968,565.976 C179.168,576.024 173.856,585.688 171.168,589.144 C169.504,591.32 169.248,591.896 169.248,593.432 C169.248,594.584 169.696,596.632 170.272,597.976 C170.912,599.512 171.872,600.344 173.024,600.344 C174.432,600.344 175.264,599.448 175.968,597.4 C178.08,590.808 179.232,588.248 181.728,584.6 C184.416,580.76 187.36,578.712 190.304,578.712 C193.568,578.712 194.848,580.824 195.168,586.584 C195.296,590.04 195.296,590.04 195.424,590.872 C195.68,594.2 196.256,596.056 197.344,597.656 C198.752,599.576 201.376,600.728 204.576,600.728 C209.76,600.728 214.944,597.72 218.528,592.664 C221.6,588.376 223.52,583.256 224.48,576.92 L223.776,576.728 Z M184.608,635.912 C183.968,637.32 183.968,637.32 180.832,644.168 C180.192,645.64 179.808,646.472 178.144,649.8 C177.44,647.56 177.184,645.768 177.184,643.144 C177.184,637.64 178.72,632.264 182.048,626.12 C183.264,623.88 183.52,623.176 183.52,622.088 C183.52,620.104 182.304,617.736 179.808,614.92 C177.696,612.552 175.968,611.464 174.112,611.272 C175.648,613.448 176.224,615.176 176.224,617.416 C176.224,618.952 175.968,620.552 174.944,625.224 C172.896,634.888 172.384,638.792 172.384,644.232 C172.384,649.8 173.216,654.728 174.816,658.312 C175.776,660.552 177.184,661.704 178.848,661.704 C180,661.704 181.024,661.128 181.6,660.168 C181.92,659.592 182.112,658.632 182.112,657.352 C182.112,656.968 182.112,656.648 182.048,656.456 C181.792,654.728 181.792,654.728 181.792,654.088 C181.792,651.336 182.432,648.008 185.312,636.168 L184.608,635.912 Z M191.136,619.592 C193.824,623.24 196.896,624.776 201.184,624.776 L202.656,624.776 C201.824,625.48 198.944,628.04 196.768,630.088 L197.216,630.664 C200.288,628.808 202.208,627.976 207.2,626.248 C209.952,625.288 211.936,624.776 214.88,624.328 C217.568,623.944 218.336,623.368 218.336,621.896 C218.336,619.784 215.136,617.096 212.704,617.096 C212,617.096 211.936,617.096 210.656,617.8 C207.584,619.464 201.632,620.872 197.6,620.872 C195.232,620.872 193.824,620.488 191.648,619.08 L191.136,619.592 Z M191.776,639.176 C190.944,641.608 190.624,643.528 190.624,645.896 C190.624,654.664 196.96,659.016 209.76,659.016 C218.336,659.016 221.28,658.056 221.28,655.304 C221.28,654.28 220.832,653.384 219.744,652.36 C218.528,651.144 216.8,650.312 215.648,650.312 C215.264,650.312 214.816,650.376 214.368,650.568 C212.192,651.4 212.192,651.4 210.72,651.656 C208.8,651.912 206.816,652.104 204.896,652.104 C200.16,652.104 197.28,651.336 195.168,649.544 C193.248,647.88 192.352,645.512 192.352,642.184 C192.352,641.48 192.416,640.84 192.544,639.368 L191.776,639.176 Z M169.696,682.936 C172.576,688.312 175.904,690.488 181.408,690.488 C181.792,690.488 182.176,690.488 183.2,690.424 C181.984,695.608 179.872,707.064 179.872,708.792 C179.872,711.672 182.816,715.128 185.184,715.128 C186.08,715.128 187.04,714.616 187.36,713.912 C188.256,712.184 188.768,711.48 190.56,709.496 C194.272,705.4 199.264,702.904 203.552,702.904 C207.84,702.904 210.4,705.336 210.4,709.368 C210.4,713.336 208.16,716.92 203.936,719.608 C199.904,722.168 194.336,724.024 186.528,725.304 L186.528,726.008 C187.552,726.072 188.384,726.072 188.832,726.072 C192.096,726.072 195.68,725.816 198.752,725.432 C204.448,724.664 207.968,723.576 211.296,721.656 C215.392,719.224 217.952,715.128 217.952,710.904 C217.952,704.568 212.512,700.28 204.512,700.28 C201.44,700.28 198.176,700.856 194.528,702.136 C191.904,703.032 190.432,703.672 186.016,705.912 C186.016,701.432 186.848,695.544 188.256,690.296 C194.144,689.4 199.584,688.056 203.36,686.392 C206.112,685.24 207.392,684.088 207.392,682.872 C207.392,682.104 207.008,681.4 206.304,680.952 C205.472,680.44 203.616,679.928 202.464,679.928 C201.248,679.928 200.8,680.056 199.84,680.888 C197.472,682.872 194.336,684.216 189.92,685.176 C191.456,681.208 192.416,679.288 193.632,677.816 C194.784,676.408 194.912,676.088 194.912,675.256 C194.912,672.76 190.496,670.712 184.992,670.712 C182.88,670.712 181.984,670.968 180.64,672.12 C184.352,672.248 185.888,673.464 185.888,676.024 C185.888,677.56 185.504,679.672 184.096,686.264 C181.92,686.584 180.896,686.648 179.488,686.648 C175.52,686.648 173.344,685.688 170.4,682.552 L169.696,682.936 Z M184.8,759.784 C183.072,763.24 182.56,764.264 181.024,767.528 C179.488,770.856 179.04,771.752 177.952,773.8 C177.44,771.88 177.248,770.088 177.248,767.656 C177.248,763.176 178.336,757.672 180,753.576 C180.64,752.04 181.472,750.44 182.496,748.648 C183.456,746.984 183.648,746.408 183.648,745.32 C183.648,743.528 182.368,741.032 180.192,738.6 C178.208,736.36 176.608,735.336 174.496,734.888 C176.032,737.448 176.48,738.984 176.48,741.16 C176.48,742.568 176.288,743.912 175.392,747.88 C173.088,758.632 172.448,763.24 172.448,769.512 C172.448,774.824 173.344,780.072 174.688,783.08 C175.712,785.32 176.992,786.408 178.528,786.408 C180.32,786.408 181.6,785 181.6,783.08 C181.6,782.632 181.536,781.992 181.472,781.352 C181.408,780.328 181.344,779.752 181.344,779.24 C181.344,777.256 182.112,772.904 183.392,768.104 L185.504,759.976 L184.8,759.784 Z M189.472,749.16 C190.56,750.824 191.904,752.296 193.504,753.448 C195.488,754.92 197.92,755.624 201.184,755.624 C202.464,755.624 203.872,755.496 205.664,755.24 C205.792,758.888 205.92,769.128 205.92,769.896 C204.64,769.832 203.872,769.768 202.976,769.768 C195.232,769.768 189.984,773.224 189.984,778.28 C189.984,782.824 194.208,785.832 200.544,785.832 C207.648,785.832 211.872,782.824 211.872,777.896 C211.872,777.704 211.872,777.448 211.808,777.064 C213.728,778.088 215.456,779.432 216.928,780.968 C219.616,783.656 219.808,783.848 220.576,783.848 C221.92,783.848 222.816,782.312 222.816,780.008 C222.816,777.832 221.92,776.104 220.064,774.76 C218.016,773.16 215.456,772.008 211.68,770.92 C211.104,766.504 210.784,762.088 210.784,756.904 L210.784,754.472 C219.04,752.68 223.008,750.952 223.008,749.032 C223.008,748.456 222.752,747.816 222.368,747.432 C221.472,746.536 219.68,745.896 218.336,745.896 C217.76,745.896 217.44,746.024 216.8,746.536 C214.88,748.008 213.984,748.456 211.104,749.352 C211.424,745.32 211.68,744.104 212.64,742.056 C213.152,740.904 213.28,740.52 213.28,739.88 C213.28,738.728 212.448,737.768 210.784,737.064 C208.736,736.104 206.432,735.656 204,735.656 C201.952,735.656 200.992,735.976 199.776,737 C202.528,737.256 204.256,738.152 204.896,739.816 C205.408,741.032 205.536,742.888 205.6,750.888 C203.168,751.464 200.672,751.784 198.176,751.784 C194.848,751.784 192.8,751.016 189.984,748.712 L189.472,749.16 Z M205.6,774.888 C205.664,774.888 205.664,774.952 205.664,775.016 C205.664,775.464 205.6,776.552 205.536,777 C205.344,778.152 204.96,779.112 204.256,779.752 C203.168,780.968 200.8,781.672 198.176,781.672 C194.464,781.672 192.032,780.264 192.032,778.216 C192.032,775.656 195.04,774.056 199.84,774.056 C202.208,774.056 203.936,774.312 205.6,774.888 L205.6,774.888 Z" id="hello"></path>
        </g>
    </g>
</svg>