<?xml version="1.0" encoding="UTF-8" standalone="no"?>
<svg width="72px" height="70px" viewBox="0 0 72 70" version="1.1" xmlns="http://www.w3.org/2000/svg" xmlns:xlink="http://www.w3.org/1999/xlink">
    <!-- Generator: Sketch 3.6.1 (26313) - http://www.bohemiancoding.com/sketch -->
    <title>octcat</title>
    <desc>Created with Sketch.</desc>
    <defs></defs>
    <g id="Welcome" stroke="none" stroke-width="1" fill="none" fill-rule="evenodd">
        <g id="Desktop" transform="translate(-345.000000, -405.000000)" fill="#FFFFFF">
            <g id="octcat" transform="translate(345.000000, 405.000000)">
                <g id="Page-1">
                    <g id="octcat">
                        <g id="Group">
                            <path d="M35.7796328,0.254529412 C16.0986098,0.254529412 0.139219672,16.1579412 0.139219672,35.7775882 C0.139219672,51.4724706 10.3511803,64.788 24.512341,69.4853529 C26.2933377,69.8139412 26.9474754,68.7144118 26.9474754,67.7763529 C26.9474754,66.9295882 26.9146033,64.1308235 26.899082,61.1625294 C16.9839148,63.3115882 14.8917246,56.9712353 14.8917246,56.9712353 C13.2704262,52.8655882 10.9344393,51.7735294 10.9344393,51.7735294 C7.70045902,49.5687059 11.1782361,49.6141176 11.1782361,49.6141176 C14.7568721,49.8645882 16.6415607,53.2751765 16.6415607,53.2751765 C19.8201836,58.7055882 24.9792197,57.1355294 27.0131607,56.2278824 C27.3330885,53.9323529 28.2564,52.3646471 29.2759672,51.4776471 C21.3596262,50.5797647 13.0376066,47.5334118 13.0376066,33.9220588 C13.0376066,30.0438824 14.4300984,26.8748235 16.7101377,24.3871176 C16.3401049,23.4921176 15.12,19.8792941 17.0553836,14.9860588 C17.0553836,14.9860588 20.048459,14.0318235 26.8587148,18.6278235 C29.7018885,17.8405294 32.7508525,17.4458824 35.7796328,17.4321176 C38.8084131,17.4458824 41.8596787,17.8405294 44.7080459,18.6278235 C51.5108656,14.0318235 54.4992787,14.9860588 54.4992787,14.9860588 C56.4393246,19.8792941 55.2191607,23.4921176 54.8491279,24.3871176 C57.1344197,26.8748235 58.5171148,30.0438824 58.5171148,33.9220588 C58.5171148,47.5661176 50.1794557,50.57 42.2429311,51.4495294 C43.5212852,52.5518824 44.6602426,54.7136471 44.6602426,58.0277059 C44.6602426,62.7808235 44.6192852,66.6061765 44.6192852,67.7763529 C44.6192852,68.7218824 45.2607934,69.8294706 47.0671082,69.4807647 C61.2207738,64.7782353 71.4201049,51.4672941 71.4201049,35.7775882 C71.4201049,16.1579412 55.4629574,0.254529412 35.7796328,0.254529412 L35.7796328,0.254529412 L35.7796328,0.254529412 Z" id="Shape"></path>
                            <path d="M13.6381574,51.2576471 C13.5597836,51.4345882 13.2808131,51.4874118 13.0272197,51.3662353 C12.7684328,51.2501765 12.6237836,51.0094706 12.7073508,50.8325294 C12.7839541,50.651 13.0629246,50.6004706 13.3211803,50.7216471 C13.5799082,50.8377059 13.7275082,51.0807059 13.6381574,51.2576471 L13.6381574,51.2576471 L13.6381574,51.2576471 L13.6381574,51.2576471 Z" id="Shape"></path>
                            <path d="M15.0819344,52.8627059 C14.9119082,53.0195294 14.5793508,52.9465882 14.3540262,52.6984118 C14.1205574,52.4508235 14.0773574,52.1193529 14.2496852,51.9602353 C14.4249049,51.8034118 14.7470754,51.8769412 14.9804852,52.1245294 C15.2138951,52.375 15.2594557,52.7035882 15.0819344,52.8627059 L15.0819344,52.8627059 L15.0819344,52.8627059 L15.0819344,52.8627059 Z" id="Shape"></path>
                            <path d="M16.4871148,54.9083529 C16.2686361,55.06 15.9112918,54.9181176 15.6905705,54.6021765 C15.4721508,54.2862353 15.4721508,53.9070588 15.6957639,53.7554118 C15.9164852,53.6037647 16.2686361,53.7404706 16.4923082,54.0535882 C16.7101377,54.3747059 16.7101377,54.7538235 16.4871148,54.9083529 L16.4871148,54.9083529 L16.4871148,54.9083529 L16.4871148,54.9083529 Z" id="Shape"></path>
                            <path d="M18.4121705,56.8851176 C18.2167672,57.0999412 17.8006426,57.0419412 17.4962951,56.7489412 C17.1845115,56.4628824 17.0980525,56.0561176 17.2934557,55.8412941 C17.4916918,55.6264118 17.910118,55.6867647 18.2167672,55.9774118 C18.5262492,56.2635294 18.6202033,56.6725294 18.4121705,56.8851176 L18.4121705,56.8851176 L18.4121705,56.8851176 L18.4121705,56.8851176 Z" id="Shape"></path>
                            <path d="M21.0680262,58.0328824 C20.9815672,58.3108824 20.581023,58.4372941 20.1775279,58.3189412 C19.7740918,58.1971765 19.5107016,57.8714706 19.5919672,57.5905294 C19.6755344,57.3101765 20.0784393,57.1786471 20.4847672,57.305 C20.8876131,57.4262353 21.1515934,57.7496471 21.0680262,58.0328824 L21.0680262,58.0328824 L21.0680262,58.0328824 L21.0680262,58.0328824 Z" id="Shape"></path>
                            <path d="M23.9849705,58.2454118 C23.9947672,58.5384118 23.6524131,58.7814118 23.2287934,58.7865294 C22.8028721,58.7963529 22.4576262,58.5590588 22.453023,58.2707059 C22.453023,57.9748235 22.787882,57.7347059 23.2138033,57.7272353 C23.637423,57.7192353 23.9849705,57.9547647 23.9849705,58.2454118 L23.9849705,58.2454118 L23.9849705,58.2454118 L23.9849705,58.2454118 Z" id="Shape"></path>
                            <path d="M26.6990754,57.7852941 C26.7497705,58.0707647 26.4552787,58.3643529 26.0344918,58.4424706 C25.6206689,58.5182941 25.2380066,58.3413529 25.1849508,58.0581176 C25.1336656,57.7651765 25.4334098,57.4716471 25.8466426,57.3957647 C26.2679607,57.3228235 26.6454885,57.4945882 26.6990754,57.7852941 L26.6990754,57.7852941 L26.6990754,57.7852941 L26.6990754,57.7852941 Z" id="Shape"></path>
                        </g>
                    </g>
                </g>
            </g>
        </g>
    </g>
</svg>