<?xml version="1.0" encoding="UTF-8" standalone="no"?>
<svg width="1232px" height="224px" viewBox="0 0 1232 224" version="1.1" xmlns="http://www.w3.org/2000/svg" xmlns:xlink="http://www.w3.org/1999/xlink">
    <!-- Generator: Sketch 3.6.1 (26313) - http://www.bohemiancoding.com/sketch -->
    <title>train_middle</title>
    <desc>Created with Sketch.</desc>
    <defs></defs>
    <g id="Page-1" stroke="none" stroke-width="1" fill="none" fill-rule="evenodd">
        <g id="train_middle">
            <path d="M1151.1111,194.6945 C1151.1111,178.5092 1164.219,165.3889 1180.3889,165.3889 C1196.5588,165.3889 1209.6667,178.5092 1209.6667,194.6945 C1209.6667,210.8796 1196.5588,224 1180.3889,224 C1164.219,224 1151.1111,210.8796 1151.1111,194.6945 L1151.1111,194.6945 Z" id="%u6955%u5186%u5F627" fill="#555555"></path>
            <path d="M1001.1111,194.6945 C1001.1111,178.5092 1014.219,165.3889 1030.3889,165.3889 C1046.5588,165.3889 1059.6667,178.5092 1059.6667,194.6945 C1059.6667,210.8796 1046.5588,224 1030.3889,224 C1014.219,224 1001.1111,210.8796 1001.1111,194.6945 L1001.1111,194.6945 Z" id="%u6955%u5186%u5F628" fill="#555555"></path>
            <path d="M203.1111,194.6945 C203.1111,178.5092 216.219,165.3889 232.3889,165.3889 C248.5588,165.3889 261.6667,178.5092 261.6667,194.6945 C261.6667,210.8796 248.5588,224 232.3889,224 C216.219,224 203.1111,210.8796 203.1111,194.6945 L203.1111,194.6945 Z" id="%u6955%u5186%u5F629" fill="#555555"></path>
            <path d="M62.1111,194.6945 C62.1111,178.5092 75.219,165.3889 91.3889,165.3889 C107.5588,165.3889 120.6667,178.5092 120.6667,194.6945 C120.6667,210.8796 107.5588,224 91.3889,224 C75.219,224 62.1111,210.8796 62.1111,194.6945 L62.1111,194.6945 Z" id="%u6955%u5186%u5F6210" fill="#555555"></path>
            <path d="M416,181.6961 L808.6667,181.6961 L808.6667,207.8987 L416,207.8987 L416,181.6961 L416,181.6961 Z" id="Shape" fill="#555555"></path>
            <path d="M963,181.6961 L1230,181.6961 L1230,207.8987 L963,207.8987 L963,181.6961 L963,181.6961 Z" id="Shape" fill="#555555"></path>
            <path d="M17,181.6961 L290.6667,181.6961 L290.6667,207.8987 L17,207.8987 L17,181.6961 L17,181.6961 Z" id="Shape" fill="#555555"></path>
            <path d="M1232,182.0392 L0,182.0392 L0,11 L10,0 L1232,0 L1232,182.0392 L1232,182.0392 Z" id="Shape" fill="#DDDDDD"></path>
            <path d="M1225,34.4771 L1.6889,34.4771 L1.6222,24.134 L1225,24.134" id="Shape" fill="#FF9999"></path>
            <path d="M1232,18.6176 L9.3778,18.6176 L9,0 L1232,0" id="Shape" fill="#CCCCCC"></path>
            <path d="M1229,37.2353 L2,37.2353" id="Shape" stroke="#CCCCCC" stroke-width="2"></path>
            <g id="Group" transform="translate(974.000000, 57.000000)">
                <path d="M0.6,16.2304 C0.6,7.2809 8.7731,0.0261 18.8555,0.0261 C28.938,0.0261 37.1111,7.2809 37.1111,16.2304 C37.1111,25.1799 28.938,32.4346 18.8555,32.4346 C8.7731,32.4346 0.6,25.1799 0.6,16.2304 L0.6,16.2304 Z" id="%u6955%u5186%u5F6211" fill="#8B8A90"></path>
                <path d="M11.6522,11.875 C13.3552,10.3228 15.9495,9.3315 18.8555,9.3315 C23.9852,9.3315 28.1434,12.4202 28.1434,16.2304 C28.1434,20.0406 23.9852,23.1292 18.8555,23.1292 C13.7259,23.1292 9.5676,20.0406 9.5676,16.2304 C9.5676,14.5787 10.349,13.0627 11.6522,11.875 Z" id="%u6955%u5186%u5F6212" fill="#FF2626"></path>
                <path d="M18.8555,14.1447 C21.5779,14.1447 24.9407,12.5403 24.9407,12.5403 C24.9407,12.5403 21.8982,15.2678 20.7771,17.0326 C20.2334,17.8886 18.8555,22.1666 18.8555,22.1666 C18.8555,22.1666 18.2151,19.4391 16.6136,17.0326 C15.0958,14.7515 11.4893,12.8612 11.4893,12.8612 C11.4893,12.8612 16.2487,14.1447 18.8555,14.1447 L18.8555,14.1447 Z" id="Shape" fill="#898A8F"></path>
                <path d="M7.9663,17.0326 C7.9663,17.0326 10.5284,25.3754 18.8555,25.3754 C27.3489,25.3754 29.7449,17.0326 29.7449,17.0326 C29.7449,17.0326 27.3489,24.4127 18.8555,24.4127 C10.5284,24.4127 7.9663,17.0326 7.9663,17.0326 L7.9663,17.0326 Z" id="Shape" fill="#EB4B3B"></path>
                <path d="M6.0446,17.3535 C6.0446,17.3535 9.1343,26.9797 19.1758,26.9797 C29.4177,26.9797 32.3071,17.6743 32.3071,17.6743 C32.3071,17.6743 29.4177,26.0171 19.1758,26.0171 C9.1343,26.0171 6.0446,17.3535 6.0446,17.3535 L6.0446,17.3535 Z" id="Shape" fill="#EB4B3B"></path>
                <path d="M3.4824,17.0326 C3.4824,17.0326 5.5413,28.905 19.4961,28.905 C34.0685,28.905 34.2286,17.0326 34.2286,17.0326 C34.2286,17.0326 33.2678,27.9424 19.4961,27.9424 C6.2038,27.9424 3.4824,17.0326 3.4824,17.0326 L3.4824,17.0326 Z" id="Shape" fill="#EB4B3B"></path>
            </g>
            <path d="M1229,152 L4,152 L4,126 L1229,126 L1229,152 Z" id="Shape" fill="#D90000"></path>
            <path d="M259,52.1169 C259,46.0743 261.5804,43 266.6524,43 L359.3476,43 C364.4196,43 367,46.0743 367,52.1169 L367,108.8831 C367,114.9257 364.4196,118 359.3476,118 L266.6524,118 C261.5804,118 259,114.9257 259,108.8831 L259,52.1169 L259,52.1169 Z" id="Shape" fill="#CECEBF"></path>
            <path d="M558,52.1169 C558,46.0743 560.5804,43 565.6525,43 L658.3475,43 C663.4196,43 666,46.0743 666,52.1169 L666,108.8831 C666,114.9257 663.4196,118 658.3475,118 L565.6525,118 C560.5804,118 558,114.9257 558,108.8831 L558,52.1169 L558,52.1169 Z" id="Shape" fill="#CECEBF"></path>
            <path d="M851,52.1169 C851,46.0743 853.5804,43 858.6525,43 L951.3475,43 C956.4196,43 959,46.0743 959,52.1169 L959,108.8831 C959,114.9257 956.4196,118 951.3475,118 L858.6525,118 C853.5804,118 851,114.9257 851,108.8831 L851,52.1169 L851,52.1169 Z" id="Shape" fill="#CECEBF"></path>
            <g id="Group" transform="translate(703.000000, 39.000000)">
                <rect id="Rectangle-path" fill="#86837B" x="0.9556" y="0.9934" width="111.6" height="142.0457"></rect>
                <path d="M71.2222,15.6175 C71.2222,11.6948 74.4247,8.5784 78.4556,8.5784 L94.3,8.5784 C98.3309,8.5784 101.5333,11.6948 101.5333,15.6175 L101.5333,73.9413 C101.5333,77.864 98.3309,80.9804 94.3,80.9804 L78.4556,80.9804 C74.4247,80.9804 71.2222,77.864 71.2222,73.9413 L71.2222,15.6175 L71.2222,15.6175 Z" id="Shape" fill="#CECEBF"></path>
                <path d="M11.9778,15.6175 C11.9778,11.6948 15.1802,8.5784 19.2111,8.5784 L35.0555,8.5784 C39.0865,8.5784 42.2889,11.6948 42.2889,15.6175 L42.2889,73.9413 C42.2889,77.864 39.0865,80.9804 35.0555,80.9804 L19.2111,80.9804 C15.1802,80.9804 11.9778,77.864 11.9778,73.9413 L11.9778,15.6175 L11.9778,15.6175 Z" id="Shape" fill="#CECEBF"></path>
                <rect id="Rectangle-path" fill="#555555" x="53.3112" y="3.062" width="6.8889" height="138.5979"></rect>
            </g>
            <g id="Group" transform="translate(405.000000, 39.000000)">
                <rect id="Rectangle-path" fill="#86837B" x="0.9555" y="0.9934" width="111.6" height="142.0457"></rect>
                <path d="M71.2222,15.6175 C71.2222,11.6948 74.4247,8.5784 78.4556,8.5784 L94.3,8.5784 C98.3309,8.5784 101.5333,11.6948 101.5333,15.6175 L101.5333,73.9413 C101.5333,77.864 98.3309,80.9804 94.3,80.9804 L78.4556,80.9804 C74.4247,80.9804 71.2222,77.864 71.2222,73.9413 L71.2222,15.6175 L71.2222,15.6175 Z" id="Shape" fill="#CECEBF"></path>
                <path d="M11.9778,15.6175 C11.9778,11.6948 15.1802,8.5784 19.2111,8.5784 L35.0555,8.5784 C39.0865,8.5784 42.2889,11.6948 42.2889,15.6175 L42.2889,73.9413 C42.2889,77.864 39.0865,80.9804 35.0555,80.9804 L19.2111,80.9804 C15.1802,80.9804 11.9778,77.864 11.9778,73.9413 L11.9778,15.6175 L11.9778,15.6175 Z" id="Shape" fill="#CECEBF"></path>
                <rect id="Rectangle-path" fill="#555555" x="53.3111" y="3.062" width="6.8889" height="138.5979"></rect>
            </g>
            <g id="Group" transform="translate(106.000000, 39.000000)">
                <rect id="Rectangle-path" fill="#86837B" x="0.9555" y="0.9934" width="111.6" height="142.0457"></rect>
                <path d="M71.2222,15.6175 C71.2222,11.6948 74.4247,8.5784 78.4556,8.5784 L94.3,8.5784 C98.3309,8.5784 101.5333,11.6948 101.5333,15.6175 L101.5333,73.9413 C101.5333,77.864 98.3309,80.9804 94.3,80.9804 L78.4556,80.9804 C74.4247,80.9804 71.2222,77.864 71.2222,73.9413 L71.2222,15.6175 L71.2222,15.6175 Z" id="Shape" fill="#CECEBF"></path>
                <path d="M11.9778,15.6175 C11.9778,11.6948 15.1802,8.5784 19.2111,8.5784 L35.0555,8.5784 C39.0865,8.5784 42.2889,11.6948 42.2889,15.6175 L42.2889,73.9413 C42.2889,77.864 39.0865,80.9804 35.0555,80.9804 L19.2111,80.9804 C15.1802,80.9804 11.9778,77.864 11.9778,73.9413 L11.9778,15.6175 L11.9778,15.6175 Z" id="Shape" fill="#CECEBF"></path>
                <rect id="Rectangle-path" fill="#555555" x="53.3111" y="3.062" width="6.8889" height="138.5979"></rect>
            </g>
            <path d="M11,51.1169 C11,45.0743 12.4097,42 15.1805,42 L65.8195,42 C68.5903,42 70,45.0743 70,51.1169 L70,107.8831 C70,113.9257 68.5903,117 65.8195,117 L15.1805,117 C12.4097,117 11,113.9257 11,107.8831 L11,51.1169 L11,51.1169 Z" id="Shape" fill="#CECEBF"></path>
            <path d="M1158,52.1169 C1158,46.0743 1159.4097,43 1162.1804,43 L1212.8196,43 C1215.5903,43 1217,46.0743 1217,52.1169 L1217,108.8831 C1217,114.9257 1215.5903,118 1212.8196,118 L1162.1804,118 C1159.4097,118 1158,114.9257 1158,108.8831 L1158,52.1169 L1158,52.1169 Z" id="Shape" fill="#CECEBF"></path>
            <path d="M80,58 C80,55.7908 81.7908,54 84,54 L92,54 C94.2092,54 96,55.7908 96,58 L96,66 C96,68.2092 94.2092,70 92,70 L84,70 C81.7908,70 80,68.2092 80,66 L80,58 L80,58 Z" id="Shape" fill="#8B8A90"></path>
            <g id="Group" transform="translate(1025.000000, 39.000000)">
                <rect id="Rectangle-path" fill="#86837B" x="0.2" y="0.9934" width="111.6001" height="142.0457"></rect>
                <path d="M70.4667,15.6175 C70.4667,11.6948 73.6691,8.5784 77.7,8.5784 L93.5444,8.5784 C97.5754,8.5784 100.7778,11.6948 100.7778,15.6175 L100.7778,73.9413 C100.7778,77.864 97.5754,80.9804 93.5444,80.9804 L77.7,80.9804 C73.6691,80.9804 70.4667,77.864 70.4667,73.9413 L70.4667,15.6175 L70.4667,15.6175 Z" id="Shape" fill="#CECEBF"></path>
                <path d="M11.2222,15.6175 C11.2222,11.6948 14.4246,8.5784 18.4556,8.5784 L34.3,8.5784 C38.3309,8.5784 41.5333,11.6948 41.5333,15.6175 L41.5333,73.9413 C41.5333,77.864 38.3309,80.9804 34.3,80.9804 L18.4556,80.9804 C14.4246,80.9804 11.2222,77.864 11.2222,73.9413 L11.2222,15.6175 L11.2222,15.6175 Z" id="Shape" fill="#CECEBF"></path>
                <rect id="Rectangle-path" fill="#555555" x="52.5555" y="3.062" width="6.8889" height="138.5979"></rect>
            </g>
            <g id="Group" transform="translate(591.000000, 19.000000)">
                <rect id="Rectangle-path" fill="#86837C" x="0" y="0" width="42" height="14"></rect>
                <rect id="Rectangle-path" fill="#FF9326" x="1" y="2" width="19" height="11"></rect>
            </g>
            <path d="M229,70.1645508 L229,69.4296875 C229.430666,69.5960295 229.789549,69.6791992 230.07666,69.6791992 C230.36605,69.6791992 230.595621,69.5931812 230.765381,69.4211426 C230.935141,69.249104 231.02002,69.0161148 231.02002,68.722168 C231.02002,67.997555 230.499354,67.6352539 229.458008,67.6352539 C229.33496,67.6352539 229.211915,67.6455077 229.088867,67.6660156 L229.088867,65.1264648 L231.994141,65.1264648 L231.994141,65.9262695 L229.827148,65.9262695 L229.775879,67.0166016 C230.505049,67.0166016 231.074135,67.1658514 231.483154,67.4643555 C231.892173,67.7628596 232.09668,68.1798476 232.09668,68.715332 C232.09668,69.2098006 231.917808,69.5994452 231.560059,69.8842773 C231.202309,70.1691095 230.712405,70.3115234 230.090332,70.3115234 C229.826008,70.3115234 229.462567,70.262533 229,70.1645508 L229,70.1645508 Z M235.036133,70.3115234 C234.461911,70.3115234 233.995363,70.0654321 233.636475,69.5732422 C233.277586,69.0810522 233.098145,68.4418985 233.098145,67.6557617 C233.098145,66.8605103 233.278156,66.219078 233.638184,65.7314453 C233.998211,65.2438127 234.472165,65 235.060059,65 C235.643395,65 236.115639,65.243243 236.476807,65.7297363 C236.837974,66.2162296 237.018555,66.8536744 237.018555,67.6420898 C237.018555,68.4510132 236.837974,69.0981421 236.476807,69.5834961 C236.115639,70.0688501 235.63542,70.3115234 235.036133,70.3115234 L235.036133,70.3115234 Z M235.046387,69.6791992 C235.645674,69.6791992 235.945312,69.0047268 235.945312,67.6557617 C235.945312,66.3067966 235.650231,65.6323242 235.060059,65.6323242 C234.469886,65.6323242 234.174805,66.3056573 234.174805,67.6523438 C234.174805,69.0035875 234.465329,69.6791992 235.046387,69.6791992 L235.046387,69.6791992 Z M239.653809,70.3115234 C239.079587,70.3115234 238.613039,70.0654321 238.25415,69.5732422 C237.895262,69.0810522 237.71582,68.4418985 237.71582,67.6557617 C237.71582,66.8605103 237.895832,66.219078 238.255859,65.7314453 C238.615887,65.2438127 239.089841,65 239.677734,65 C240.261071,65 240.733315,65.243243 241.094482,65.7297363 C241.45565,66.2162296 241.63623,66.8536744 241.63623,67.6420898 C241.63623,68.4510132 241.45565,69.0981421 241.094482,69.5834961 C240.733315,70.0688501 240.253095,70.3115234 239.653809,70.3115234 L239.653809,70.3115234 Z M239.664062,69.6791992 C240.263349,69.6791992 240.562988,69.0047268 240.562988,67.6557617 C240.562988,66.3067966 240.267907,65.6323242 239.677734,65.6323242 C239.087562,65.6323242 238.79248,66.3056573 238.79248,67.6523438 C238.79248,69.0035875 239.083005,69.6791992 239.664062,69.6791992 L239.664062,69.6791992 Z M244.271484,70.3115234 C243.697263,70.3115234 243.230715,70.0654321 242.871826,69.5732422 C242.512938,69.0810522 242.333496,68.4418985 242.333496,67.6557617 C242.333496,66.8605103 242.513507,66.219078 242.873535,65.7314453 C243.233563,65.2438127 243.707517,65 244.29541,65 C244.878746,65 245.350991,65.243243 245.712158,65.7297363 C246.073325,66.2162296 246.253906,66.8536744 246.253906,67.6420898 C246.253906,68.4510132 246.073325,69.0981421 245.712158,69.5834961 C245.350991,70.0688501 244.870771,70.3115234 244.271484,70.3115234 L244.271484,70.3115234 Z M244.281738,69.6791992 C244.881025,69.6791992 245.180664,69.0047268 245.180664,67.6557617 C245.180664,66.3067966 244.885582,65.6323242 244.29541,65.6323242 C243.705238,65.6323242 243.410156,66.3056573 243.410156,67.6523438 C243.410156,69.0035875 243.700681,69.6791992 244.281738,69.6791992 L244.281738,69.6791992 Z" id="5000" fill="#86837B"></path>
        </g>
    </g>
</svg>