<?xml version="1.0" encoding="UTF-8" standalone="no"?>
<svg width="1278px" height="224px" viewBox="0 0 1278 224" version="1.1" xmlns="http://www.w3.org/2000/svg" xmlns:xlink="http://www.w3.org/1999/xlink">
    <!-- Generator: Sketch 3.6.1 (26313) - http://www.bohemiancoding.com/sketch -->
    <title>train_head</title>
    <desc>Created with Sketch.</desc>
    <defs></defs>
    <g id="Page-1" stroke="none" stroke-width="1" fill="none" fill-rule="evenodd">
        <g id="train_head">
            <path d="M1151.1111,194.6945 C1151.1111,178.5092 1164.219,165.3889 1180.3889,165.3889 C1196.5588,165.3889 1209.6667,178.5092 1209.6667,194.6945 C1209.6667,210.8797 1196.5588,224 1180.3889,224 C1164.219,224 1151.1111,210.8797 1151.1111,194.6945 L1151.1111,194.6945 Z" id="%u6955%u5186%u5F62" fill="#555555"></path>
            <path d="M1001.1111,194.6945 C1001.1111,178.5092 1014.219,165.3889 1030.3889,165.3889 C1046.5588,165.3889 1059.6667,178.5092 1059.6667,194.6945 C1059.6667,210.8797 1046.5588,224 1030.3889,224 C1014.219,224 1001.1111,210.8797 1001.1111,194.6945 L1001.1111,194.6945 Z" id="%u6955%u5186%u5F622" fill="#555555"></path>
            <path d="M203.1111,194.6945 C203.1111,178.5092 216.219,165.3889 232.3889,165.3889 C248.5588,165.3889 261.6667,178.5092 261.6667,194.6945 C261.6667,210.8797 248.5588,224 232.3889,224 C216.219,224 203.1111,210.8797 203.1111,194.6945 L203.1111,194.6945 Z" id="%u6955%u5186%u5F623" fill="#555555"></path>
            <path d="M62.1111,194.6945 C62.1111,178.5092 75.219,165.3889 91.3889,165.3889 C107.5588,165.3889 120.6667,178.5092 120.6667,194.6945 C120.6667,210.8797 107.5588,224 91.3889,224 C75.219,224 62.1111,210.8797 62.1111,194.6945 L62.1111,194.6945 Z" id="%u6955%u5186%u5F624" fill="#555555"></path>
            <path d="M1267.6667,195.1405 L1259.4,168.9379 L1235.9778,168.9379 L1235.9778,207.8987 L1267.6667,195.1405 L1267.6667,195.1405 Z" id="Shape" fill="#555555"></path>
            <path d="M416,181.6961 L808.6667,181.6961 L808.6667,207.8987 L416,207.8987 L416,181.6961 L416,181.6961 Z" id="Shape" fill="#555555"></path>
            <path d="M963,181.6961 L1236.6667,181.6961 L1236.6667,207.8987 L963,207.8987 L963,181.6961 L963,181.6961 Z" id="Shape" fill="#555555"></path>
            <path d="M17,181.6961 L290.6667,181.6961 L290.6667,207.8987 L17,207.8987 L17,181.6961 L17,181.6961 Z" id="Shape" fill="#555555"></path>
            <path d="M10,0 L1238.7334,0 C1238.7334,0 1253.8889,3.4477 1258.0222,6.8954 C1262.7036,10.8003 1267.6667,17.2386 1267.6667,17.2386 L1277.311,128.2549 L1275.9333,152.3889 L1271.8,153.768 L1278,166.8693 L1268.3555,180.6601 L1244.2444,182.0392 L0,182.0392 L0,11 L10,0 Z" id="Shape" fill="#DDDDDD"></path>
            <path d="M1.6222,24.134 L1161.5778,24.134 C1161.5778,24.134 1173.9778,58.6111 1178.8,95.8464 C1182.9858,128.1674 1186.3778,158.5948 1186.3778,158.5948 L1257.3333,158.5948 L1260.7778,164.1111 L1179.4889,164.1111 C1179.4889,164.1111 1179.3599,139.0905 1171.9111,95.8464 C1165.0222,55.8529 1156.7556,34.4771 1156.7556,34.4771 L1.6889,34.4771 L1.6222,24.134 L1.6222,24.134 Z" id="Shape" fill="#FF9999"></path>
            <rect id="Rectangle-path" fill="#86837C" x="1190.5111" y="39.9934" width="46.1555" height="142.0457"></rect>
            <path d="M1148.4889,43.4412 L1156.0667,43.4412 C1156.0667,43.4412 1162.2666,64.1275 1167.7778,93.0882 C1170.6398,108.1282 1173.2888,152.3889 1173.2888,152.3889 L1149.8667,152.3889 L1149.8667,125.4967 L1163.6445,125.4967 C1163.6445,125.4967 1164.3333,116.5327 1160.2,93.0882 C1156.0667,69.6438 1148.4889,43.4412 1148.4889,43.4412 L1148.4889,43.4412 Z" id="Shape" fill="#D90000"></path>
            <path d="M1202.2222,55.3358 C1202.2222,52.8114 1204.0057,51.0261 1206.5278,51.0261 L1220.65,51.0261 C1223.1721,51.0261 1224.9556,52.8114 1224.9556,55.3358 L1224.9556,101.8799 C1224.9556,104.4043 1223.1721,106.1895 1220.65,106.1895 L1206.5278,106.1895 C1204.0057,106.1895 1202.2222,104.4043 1202.2222,101.8799 L1202.2222,55.3358 L1202.2222,55.3358 Z" id="Shape" fill="#CECEBF"></path>
            <path d="M9,3.55271368e-15 L1238.7334,3.55271368e-15 C1238.7334,3.55271368e-15 1243.2112,5.8611 1245.6222,9.6536 C1248.0333,13.4461 1247,18.6176 1247,18.6176 L9.3778,18.6176 L9,3.55271368e-15 L9,3.55271368e-15 Z" id="Shape" fill="#CCCCCC"></path>
            <path d="M1246.311,22.0654 L1246.311,37.2353 L2,37.2353" id="Shape" stroke="#CCCCCC" stroke-width="2"></path>
            <g id="Group" transform="translate(985.000000, 57.000000)">
                <path d="M0.6,16.2304 C0.6,7.2809 8.7731,0.0261 18.8555,0.0261 C28.938,0.0261 37.1111,7.2809 37.1111,16.2304 C37.1111,25.1799 28.938,32.4346 18.8555,32.4346 C8.7731,32.4346 0.6,25.1799 0.6,16.2304 L0.6,16.2304 Z" id="%u6955%u5186%u5F625" fill="#8B8A90"></path>
                <path d="M11.6522,11.875 C13.3552,10.3228 15.9495,9.3315 18.8555,9.3315 C23.9852,9.3315 28.1434,12.4202 28.1434,16.2304 C28.1434,20.0406 23.9852,23.1292 18.8555,23.1292 C13.7259,23.1292 9.5676,20.0406 9.5676,16.2304 C9.5676,14.5788 10.349,13.0627 11.6522,11.875 Z" id="%u6955%u5186%u5F626" fill="#FF2626"></path>
                <path d="M18.8555,14.1447 C21.5779,14.1447 24.9407,12.5403 24.9407,12.5403 C24.9407,12.5403 21.8981,15.2678 20.7772,17.0326 C20.2335,17.8886 18.8555,22.1666 18.8555,22.1666 C18.8555,22.1666 18.215,19.4391 16.6136,17.0326 C15.0958,14.7515 11.4893,12.8612 11.4893,12.8612 C11.4893,12.8612 16.2487,14.1447 18.8555,14.1447 L18.8555,14.1447 Z" id="Shape" fill="#898A8F"></path>
                <path d="M7.9663,17.0326 C7.9663,17.0326 10.5284,25.3754 18.8555,25.3754 C27.3489,25.3754 29.7449,17.0326 29.7449,17.0326 C29.7449,17.0326 27.3489,24.4127 18.8555,24.4127 C10.5284,24.4127 7.9663,17.0326 7.9663,17.0326 L7.9663,17.0326 Z" id="Shape" fill="#EB4B3B"></path>
                <path d="M6.0446,17.3535 C6.0446,17.3535 9.1343,26.9798 19.1758,26.9798 C29.4177,26.9798 32.3071,17.6743 32.3071,17.6743 C32.3071,17.6743 29.4177,26.0171 19.1758,26.0171 C9.1343,26.0171 6.0446,17.3535 6.0446,17.3535 L6.0446,17.3535 Z" id="Shape" fill="#EB4B3B"></path>
                <path d="M3.4824,17.0326 C3.4824,17.0326 5.5413,28.905 19.4961,28.905 C34.0685,28.905 34.2286,17.0326 34.2286,17.0326 C34.2286,17.0326 33.2678,27.9424 19.4961,27.9424 C6.2038,27.9424 3.4824,17.0326 3.4824,17.0326 L3.4824,17.0326 Z" id="Shape" fill="#EB4B3B"></path>
            </g>
            <g id="Group" transform="translate(1036.000000, 39.000000)">
                <rect id="Rectangle-path" fill="#86837B" x="0.2" y="0.9934" width="111.6001" height="142.0457"></rect>
                <path d="M70.4667,15.6175 C70.4667,11.6948 73.6691,8.5784 77.7,8.5784 L93.5444,8.5784 C97.5754,8.5784 100.7778,11.6948 100.7778,15.6175 L100.7778,73.9413 C100.7778,77.864 97.5754,80.9804 93.5444,80.9804 L77.7,80.9804 C73.6691,80.9804 70.4667,77.864 70.4667,73.9413 L70.4667,15.6175 L70.4667,15.6175 Z" id="Shape" fill="#CECEBF"></path>
                <path d="M11.2222,15.6175 C11.2222,11.6948 14.4246,8.5784 18.4556,8.5784 L34.3,8.5784 C38.3309,8.5784 41.5333,11.6948 41.5333,15.6175 L41.5333,73.9413 C41.5333,77.864 38.3309,80.9804 34.3,80.9804 L18.4556,80.9804 C14.4246,80.9804 11.2222,77.864 11.2222,73.9413 L11.2222,15.6175 L11.2222,15.6175 Z" id="Shape" fill="#CECEBF"></path>
                <rect id="Rectangle-path" fill="#555555" x="52.5555" y="3.062" width="6.8889" height="138.5979"></rect>
            </g>
            <path d="M1261.4667,159.2843 L1264.9111,164.1111 L1273.8667,164.1111 L1269.7334,154.4575 L1261.4667,159.2843 L1261.4667,159.2843 Z" id="Shape" fill="#CCCCCC"></path>
            <path d="M1033,126 L1033,152 L4,152 L4,126 L1033,126 L1033,126 Z" id="Shape" fill="#D90000"></path>
            <path d="M259,52.117 C259,46.0743 261.5804,43 266.6524,43 L359.3476,43 C364.4196,43 367,46.0743 367,52.117 L367,108.883 C367,114.9257 364.4196,118 359.3476,118 L266.6524,118 C261.5804,118 259,114.9257 259,108.883 L259,52.117 L259,52.117 Z" id="Shape" fill="#CECEBF"></path>
            <path d="M558,52.117 C558,46.0743 560.5804,43 565.6525,43 L658.3475,43 C663.4196,43 666,46.0743 666,52.117 L666,108.8831 C666,114.9257 663.4196,118 658.3475,118 L565.6525,118 C560.5804,118 558,114.9257 558,108.8831 L558,52.117 L558,52.117 Z" id="Shape" fill="#CECEBF"></path>
            <path d="M851,52.1169 C851,46.0743 853.5804,43 858.6525,43 L951.3475,43 C956.4196,43 959,46.0743 959,52.1169 L959,108.8831 C959,114.9257 956.4196,118 951.3475,118 L858.6525,118 C853.5804,118 851,114.9257 851,108.8831 L851,52.1169 L851,52.1169 Z" id="Shape" fill="#CECEBF"></path>
            <g id="Group" transform="translate(703.000000, 39.000000)">
                <rect id="Rectangle-path" fill="#86837B" x="0.9556" y="0.9934" width="111.6" height="142.0457"></rect>
                <path d="M71.2222,15.6175 C71.2222,11.6948 74.4247,8.5784 78.4556,8.5784 L94.3,8.5784 C98.3309,8.5784 101.5333,11.6948 101.5333,15.6175 L101.5333,73.9413 C101.5333,77.864 98.3309,80.9804 94.3,80.9804 L78.4556,80.9804 C74.4247,80.9804 71.2222,77.864 71.2222,73.9413 L71.2222,15.6175 L71.2222,15.6175 Z" id="Shape" fill="#CECEBF"></path>
                <path d="M11.9778,15.6175 C11.9778,11.6948 15.1802,8.5784 19.2111,8.5784 L35.0555,8.5784 C39.0865,8.5784 42.2889,11.6948 42.2889,15.6175 L42.2889,73.9413 C42.2889,77.864 39.0865,80.9804 35.0555,80.9804 L19.2111,80.9804 C15.1802,80.9804 11.9778,77.864 11.9778,73.9413 L11.9778,15.6175 L11.9778,15.6175 Z" id="Shape" fill="#CECEBF"></path>
                <rect id="Rectangle-path" fill="#555555" x="53.3112" y="3.062" width="6.8889" height="138.5979"></rect>
            </g>
            <g id="Group" transform="translate(405.000000, 39.000000)">
                <rect id="Rectangle-path" fill="#86837B" x="0.9555" y="0.9934" width="111.6" height="142.0457"></rect>
                <path d="M71.2222,15.6175 C71.2222,11.6948 74.4247,8.5784 78.4556,8.5784 L94.3,8.5784 C98.3309,8.5784 101.5333,11.6948 101.5333,15.6175 L101.5333,73.9413 C101.5333,77.864 98.3309,80.9804 94.3,80.9804 L78.4556,80.9804 C74.4247,80.9804 71.2222,77.864 71.2222,73.9413 L71.2222,15.6175 L71.2222,15.6175 Z" id="Shape" fill="#CECEBF"></path>
                <path d="M11.9778,15.6175 C11.9778,11.6948 15.1802,8.5784 19.2111,8.5784 L35.0555,8.5784 C39.0865,8.5784 42.2889,11.6948 42.2889,15.6175 L42.2889,73.9413 C42.2889,77.864 39.0865,80.9804 35.0555,80.9804 L19.2111,80.9804 C15.1802,80.9804 11.9778,77.864 11.9778,73.9413 L11.9778,15.6175 L11.9778,15.6175 Z" id="Shape" fill="#CECEBF"></path>
                <rect id="Rectangle-path" fill="#555555" x="53.3111" y="3.062" width="6.8889" height="138.5979"></rect>
            </g>
            <g id="Group" transform="translate(106.000000, 39.000000)">
                <rect id="Rectangle-path" fill="#86837B" x="0.9555" y="0.9934" width="111.6" height="142.0457"></rect>
                <path d="M71.2222,15.6175 C71.2222,11.6948 74.4247,8.5784 78.4556,8.5784 L94.3,8.5784 C98.3309,8.5784 101.5333,11.6948 101.5333,15.6175 L101.5333,73.9413 C101.5333,77.864 98.3309,80.9804 94.3,80.9804 L78.4556,80.9804 C74.4247,80.9804 71.2222,77.864 71.2222,73.9413 L71.2222,15.6175 L71.2222,15.6175 Z" id="Shape" fill="#CECEBF"></path>
                <path d="M11.9778,15.6175 C11.9778,11.6948 15.1802,8.5784 19.2111,8.5784 L35.0555,8.5784 C39.0865,8.5784 42.2889,11.6948 42.2889,15.6175 L42.2889,73.9413 C42.2889,77.864 39.0865,80.9804 35.0555,80.9804 L19.2111,80.9804 C15.1802,80.9804 11.9778,77.864 11.9778,73.9413 L11.9778,15.6175 L11.9778,15.6175 Z" id="Shape" fill="#CECEBF"></path>
                <rect id="Rectangle-path" fill="#555555" x="53.3111" y="3.062" width="6.8889" height="138.5979"></rect>
            </g>
            <path d="M11,51.117 C11,45.0743 12.4097,42 15.1805,42 L65.8195,42 C68.5903,42 70,45.0743 70,51.117 L70,107.883 C70,113.9257 68.5903,117 65.8195,117 L15.1805,117 C12.4097,117 11,113.9257 11,107.883 L11,51.117 L11,51.117 Z" id="Shape" fill="#CECEBF"></path>
            <path d="M80,58 C80,55.7908 81.7908,54 84,54 L92,54 C94.2092,54 96,55.7908 96,58 L96,66 C96,68.2092 94.2092,70 92,70 L84,70 C81.7908,70 80,68.2092 80,66 L80,58 L80,58 Z" id="Shape" fill="#8B8A90"></path>
            <path d="M229.868164,68.9794922 L229.868164,68.2446289 C230.29883,68.4109709 230.657713,68.4941406 230.944824,68.4941406 C231.234214,68.4941406 231.463785,68.4081226 231.633545,68.236084 C231.803305,68.0640454 231.888184,67.8310562 231.888184,67.5371094 C231.888184,66.8124964 231.367518,66.4501953 230.326172,66.4501953 C230.203124,66.4501953 230.080079,66.4604491 229.957031,66.480957 L229.957031,63.9414062 L232.862305,63.9414062 L232.862305,64.7412109 L230.695312,64.7412109 L230.644043,65.831543 C231.373213,65.831543 231.942299,65.9807928 232.351318,66.2792969 C232.760337,66.577801 232.964844,66.994789 232.964844,67.5302734 C232.964844,68.0247421 232.785972,68.4143866 232.428223,68.6992188 C232.070473,68.9840509 231.58057,69.1264648 230.958496,69.1264648 C230.694172,69.1264648 230.330731,69.0774744 229.868164,68.9794922 L229.868164,68.9794922 Z M235.904297,69.1264648 C235.330075,69.1264648 234.863527,68.8803736 234.504639,68.3881836 C234.14575,67.8959936 233.966309,67.2568399 233.966309,66.4707031 C233.966309,65.6754518 234.14632,65.0340194 234.506348,64.5463867 C234.866375,64.0587541 235.340329,63.8149414 235.928223,63.8149414 C236.511559,63.8149414 236.983804,64.0581844 237.344971,64.5446777 C237.706138,65.0311711 237.886719,65.6686158 237.886719,66.4570312 C237.886719,67.2659546 237.706138,67.9130835 237.344971,68.3984375 C236.983804,68.8837915 236.503584,69.1264648 235.904297,69.1264648 L235.904297,69.1264648 Z M235.914551,68.4941406 C236.513838,68.4941406 236.813477,67.8196682 236.813477,66.4707031 C236.813477,65.121738 236.518395,64.4472656 235.928223,64.4472656 C235.33805,64.4472656 235.042969,65.1205987 235.042969,66.4672852 C235.042969,67.8185289 235.333493,68.4941406 235.914551,68.4941406 L235.914551,68.4941406 Z M240.521973,69.1264648 C239.947751,69.1264648 239.481203,68.8803736 239.122314,68.3881836 C238.763426,67.8959936 238.583984,67.2568399 238.583984,66.4707031 C238.583984,65.6754518 238.763996,65.0340194 239.124023,64.5463867 C239.484051,64.0587541 239.958005,63.8149414 240.545898,63.8149414 C241.129235,63.8149414 241.601479,64.0581844 241.962646,64.5446777 C242.323814,65.0311711 242.504395,65.6686158 242.504395,66.4570312 C242.504395,67.2659546 242.323814,67.9130835 241.962646,68.3984375 C241.601479,68.8837915 241.12126,69.1264648 240.521973,69.1264648 L240.521973,69.1264648 Z M240.532227,68.4941406 C241.131513,68.4941406 241.431152,67.8196682 241.431152,66.4707031 C241.431152,65.121738 241.136071,64.4472656 240.545898,64.4472656 C239.955726,64.4472656 239.660645,65.1205987 239.660645,66.4672852 C239.660645,67.8185289 239.951169,68.4941406 240.532227,68.4941406 L240.532227,68.4941406 Z M245.139648,69.1264648 C244.565427,69.1264648 244.098879,68.8803736 243.73999,68.3881836 C243.381102,67.8959936 243.20166,67.2568399 243.20166,66.4707031 C243.20166,65.6754518 243.381671,65.0340194 243.741699,64.5463867 C244.101727,64.0587541 244.575681,63.8149414 245.163574,63.8149414 C245.74691,63.8149414 246.219155,64.0581844 246.580322,64.5446777 C246.941489,65.0311711 247.12207,65.6686158 247.12207,66.4570312 C247.12207,67.2659546 246.941489,67.9130835 246.580322,68.3984375 C246.219155,68.8837915 245.738935,69.1264648 245.139648,69.1264648 L245.139648,69.1264648 Z M245.149902,68.4941406 C245.749189,68.4941406 246.048828,67.8196682 246.048828,66.4707031 C246.048828,65.121738 245.753746,64.4472656 245.163574,64.4472656 C244.573402,64.4472656 244.27832,65.1205987 244.27832,66.4672852 C244.27832,67.8185289 244.568845,68.4941406 245.149902,68.4941406 L245.149902,68.4941406 Z" id="5000" fill="#86837B"></path>
            <g id="Group" transform="translate(587.000000, 19.000000)">
                <rect id="Rectangle-path" fill="#86837C" x="0" y="0" width="42" height="14"></rect>
                <rect id="Rectangle-path" fill="#FF9326" x="1" y="2" width="19" height="11"></rect>
            </g>
        </g>
    </g>
</svg>