<?xml version="1.0" encoding="UTF-8" standalone="no"?>
<svg width="70px" height="58px" viewBox="0 0 70 58" version="1.1" xmlns="http://www.w3.org/2000/svg" xmlns:xlink="http://www.w3.org/1999/xlink">
    <!-- Generator: Sketch 3.6.1 (26313) - http://www.bohemiancoding.com/sketch -->
    <title>twitter</title>
    <desc>Created with Sketch.</desc>
    <defs>
        <path id="path-1" d="M0.0153284672,57.1365215 L69.8441606,57.1365215 L69.8441606,0.210667537 L0.0153284672,0.210667537 L0.0153284672,57.1365215 L0.0153284672,57.1365215 L0.0153284672,57.1365215 Z"></path>
    </defs>
    <g id="Welcome" stroke="none" stroke-width="1" fill="none" fill-rule="evenodd">
        <g id="Desktop" transform="translate(-449.000000, -411.000000)">
            <g id="twitter" transform="translate(449.000000, 411.000000)">
                <g id="Page-1">
                    <g id="TwitterLogo_white">
                        <g id="Fill-1-Clipped">
                            <mask id="mask-2" fill="white">
                                <use xlink:href="#path-1"></use>
                            </mask>
                            <g id="path-1"></g>
                            <path d="M69.8441606,6.95125986 C67.2743431,8.09455412 64.5126642,8.86725805 61.6140511,9.2147826 C64.5727007,7.43564143 66.844635,4.61853976 67.914562,1.26195493 C65.1459854,2.90910853 62.0792701,4.10545411 58.8153285,4.75027105 C56.2013139,1.95649146 52.4772628,0.210667537 48.3559489,0.210667537 C40.4421168,0.210667537 34.0261314,6.64679145 34.0261314,14.5852671 C34.0261314,15.7119027 34.1531022,16.8090654 34.3973358,17.8611216 C22.4881387,17.2616674 11.929635,11.538789 4.86218978,2.84196146 C3.62875912,4.96503917 2.92211679,7.43435999 2.92211679,10.0687294 C2.92211679,15.0558092 5.45208029,19.4557365 9.2969708,22.0334665 C6.94788321,21.9588872 4.73854015,21.3122762 2.80638686,20.2356165 C2.80536496,20.2955875 2.80536496,20.3558148 2.80536496,20.4162985 C2.80536496,27.3811415 7.74470803,33.1911574 14.299927,34.5115457 C13.0974088,34.840105 11.8315328,35.0156613 10.5245255,35.0156613 C9.60124088,35.0156613 8.70350365,34.9257047 7.82875912,34.757837 C9.65208029,40.4689263 14.9439781,44.6248689 21.2143431,44.7409667 C16.3102555,48.5962851 10.1316058,50.8944065 3.41824818,50.8944065 C2.26171533,50.8944065 1.1210219,50.8264906 0,50.6937342 C6.34138686,54.7722782 13.8735401,57.1518987 21.9656934,57.1518987 C48.3224818,57.1518987 62.7353285,35.2478569 62.7353285,16.2521547 C62.7353285,15.6288659 62.7215328,15.0089087 62.6939416,14.3925396 C65.4934307,12.3658256 67.9229927,9.83397088 69.8441606,6.95125986" id="Fill-1" fill="#FFFFFF" mask="url(#mask-2)"></path>
                        </g>
                    </g>
                </g>
            </g>
        </g>
    </g>
</svg>